{
	"asset":{
		"generator":"Khronos glTF Blender I/O v4.1.63",
		"version":"2.0"
	},
	"scene":0,
	"scenes":[
		{
			"name":"Scene",
			"nodes":[
				0,
				1,
				2,
				4,
				5
			]
		}
	],
	"nodes":[
		{
			"mesh":0,
			"name":"Wall",
			"rotation":[
				0,
				-0.7089272141456604,
				0,
				0.705281674861908
			],
			"translation":[
				0,
				2,
				0
			]
		},
		{
			"mesh":1,
			"name":"Floor",
			"rotation":[
				0,
				-0.7089272141456604,
				0,
				0.705281674861908
			],
			"translation":[
				0,
				2,
				0
			]
		},
		{
			"mesh":2,
			"name":"rug",
			"scale":[
				0.6875719428062439,
				0.6875719428062439,
				0.6875719428062439
			],
			"translation":[
				0.6436659693717957,
				0.5962202548980713,
				0.6425869464874268
			]
		},
		{
			"mesh":3,
			"name":"Plane.001",
			"translation":[
				0,
				-0.7813080549240112,
				0
			]
		},
		{
			"children":[
				3
			],
			"mesh":4,
			"name":"Plane",
			"translation":[
				0.32785114645957947,
				1.050506830215454,
				-0.9510488510131836
			]
		},
		{
			"mesh":5,
			"name":"Plane.002",
			"translation":[
				0.972001314163208,
				1.624818205833435,
				-2.940984010696411
			]
		}
	],
	"materials":[
		{
			"doubleSided":true,
			"name":"Material",
			"pbrMetallicRoughness":{
				"baseColorFactor":[
					0.800000011920929,
					0.800000011920929,
					0.800000011920929,
					1
				],
				"metallicFactor":0,
				"roughnessFactor":0.5
			}
		}
	],
	"meshes":[
		{
			"name":"Cube",
			"primitives":[
				{
					"attributes":{
						"POSITION":0,
						"NORMAL":1,
						"TEXCOORD_0":2
					},
					"indices":3,
					"material":0
				}
			]
		},
		{
			"name":"Cube.001",
			"primitives":[
				{
					"attributes":{
						"POSITION":4,
						"NORMAL":5,
						"TEXCOORD_0":6
					},
					"indices":7,
					"material":0
				}
			]
		},
		{
			"name":"Cube.002",
			"primitives":[
				{
					"attributes":{
						"POSITION":8,
						"NORMAL":9,
						"TEXCOORD_0":10
					},
					"indices":11
				}
			]
		},
		{
			"name":"Plane.001",
			"primitives":[
				{
					"attributes":{
						"POSITION":12,
						"NORMAL":13,
						"TEXCOORD_0":14
					},
					"indices":15
				}
			]
		},
		{
			"name":"Plane",
			"primitives":[
				{
					"attributes":{
						"POSITION":16,
						"NORMAL":17,
						"TEXCOORD_0":18
					},
					"indices":19
				}
			]
		},
		{
			"name":"Plane.002",
			"primitives":[
				{
					"attributes":{
						"POSITION":20,
						"NORMAL":21,
						"TEXCOORD_0":22
					},
					"indices":19
				}
			]
		}
	],
	"accessors":[
		{
			"bufferView":0,
			"componentType":5126,
			"count":16,
			"max":[
				1.5240000486373901,
				1.3716000318527222,
				1.9811999797821045
			],
			"min":[
				-1.9811999797821045,
				-1.7661080360412598,
				-1.5240000486373901
			],
			"type":"VEC3"
		},
		{
			"bufferView":1,
			"componentType":5126,
			"count":16,
			"type":"VEC3"
		},
		{
			"bufferView":2,
			"componentType":5126,
			"count":16,
			"type":"VEC2"
		},
		{
			"bufferView":3,
			"componentType":5123,
			"count":60,
			"type":"SCALAR"
		},
		{
			"bufferView":4,
			"componentType":5126,
			"count":8,
			"max":[
				1.5240000486373901,
				-1.3716000318527222,
				1.5240000486373901
			],
			"min":[
				-1.5240000486373901,
				-1.783079981803894,
				-1.5240000486373901
			],
			"type":"VEC3"
		},
		{
			"bufferView":5,
			"componentType":5126,
			"count":8,
			"type":"VEC3"
		},
		{
			"bufferView":6,
			"componentType":5126,
			"count":8,
			"type":"VEC2"
		},
		{
			"bufferView":7,
			"componentType":5123,
			"count":36,
			"type":"SCALAR"
		},
		{
			"bufferView":8,
			"componentType":5126,
			"count":182,
			"max":[
				1,
				0.07162147015333176,
				1
			],
			"min":[
				-1,
				-0.07162147015333176,
				-1
			],
			"type":"VEC3"
		},
		{
			"bufferView":9,
			"componentType":5126,
			"count":182,
			"type":"VEC3"
		},
		{
			"bufferView":10,
			"componentType":5126,
			"count":182,
			"type":"VEC2"
		},
		{
			"bufferView":11,
			"componentType":5123,
			"count":720,
			"type":"SCALAR"
		},
		{
			"bufferView":12,
			"componentType":5126,
			"count":45,
			"max":[
				1.4587857723236084,
				0.269817590713501,
				-0.2701687216758728
			],
			"min":[
				1.1591472625732422,
				0,
				-0.48766303062438965
			],
			"type":"VEC3"
		},
		{
			"bufferView":13,
			"componentType":5126,
			"count":45,
			"type":"VEC3"
		},
		{
			"bufferView":14,
			"componentType":5126,
			"count":45,
			"type":"VEC2"
		},
		{
			"bufferView":15,
			"componentType":5123,
			"count":120,
			"type":"SCALAR"
		},
		{
			"bufferView":16,
			"componentType":5126,
			"count":60,
			"max":[
				1,
				0.2043023407459259,
				0.48766303062438965
			],
			"min":[
				-1,
				0,
				-0.48766303062438965
			],
			"type":"VEC3"
		},
		{
			"bufferView":17,
			"componentType":5126,
			"count":60,
			"type":"VEC3"
		},
		{
			"bufferView":18,
			"componentType":5126,
			"count":60,
			"type":"VEC2"
		},
		{
			"bufferView":19,
			"componentType":5123,
			"count":180,
			"type":"SCALAR"
		},
		{
			"bufferView":20,
			"componentType":5126,
			"count":60,
			"max":[
				0.3118622303009033,
				0.2043023407459259,
				0.48766303062438965
			],
			"min":[
				-1,
				0,
				-0.48766303062438965
			],
			"type":"VEC3"
		},
		{
			"bufferView":21,
			"componentType":5126,
			"count":60,
			"type":"VEC3"
		},
		{
			"bufferView":22,
			"componentType":5126,
			"count":60,
			"type":"VEC2"
		}
	],
	"bufferViews":[
		{
			"buffer":0,
			"byteLength":192,
			"byteOffset":0,
			"target":34962
		},
		{
			"buffer":0,
			"byteLength":192,
			"byteOffset":192,
			"target":34962
		},
		{
			"buffer":0,
			"byteLength":128,
			"byteOffset":384,
			"target":34962
		},
		{
			"buffer":0,
			"byteLength":120,
			"byteOffset":512,
			"target":34963
		},
		{
			"buffer":0,
			"byteLength":96,
			"byteOffset":632,
			"target":34962
		},
		{
			"buffer":0,
			"byteLength":96,
			"byteOffset":728,
			"target":34962
		},
		{
			"buffer":0,
			"byteLength":64,
			"byteOffset":824,
			"target":34962
		},
		{
			"buffer":0,
			"byteLength":72,
			"byteOffset":888,
			"target":34963
		},
		{
			"buffer":0,
			"byteLength":2184,
			"byteOffset":960,
			"target":34962
		},
		{
			"buffer":0,
			"byteLength":2184,
			"byteOffset":3144,
			"target":34962
		},
		{
			"buffer":0,
			"byteLength":1456,
			"byteOffset":5328,
			"target":34962
		},
		{
			"buffer":0,
			"byteLength":1440,
			"byteOffset":6784,
			"target":34963
		},
		{
			"buffer":0,
			"byteLength":540,
			"byteOffset":8224,
			"target":34962
		},
		{
			"buffer":0,
			"byteLength":540,
			"byteOffset":8764,
			"target":34962
		},
		{
			"buffer":0,
			"byteLength":360,
			"byteOffset":9304,
			"target":34962
		},
		{
			"buffer":0,
			"byteLength":240,
			"byteOffset":9664,
			"target":34963
		},
		{
			"buffer":0,
			"byteLength":720,
			"byteOffset":9904,
			"target":34962
		},
		{
			"buffer":0,
			"byteLength":720,
			"byteOffset":10624,
			"target":34962
		},
		{
			"buffer":0,
			"byteLength":480,
			"byteOffset":11344,
			"target":34962
		},
		{
			"buffer":0,
			"byteLength":360,
			"byteOffset":11824,
			"target":34963
		},
		{
			"buffer":0,
			"byteLength":720,
			"byteOffset":12184,
			"target":34962
		},
		{
			"buffer":0,
			"byteLength":720,
			"byteOffset":12904,
			"target":34962
		},
		{
			"buffer":0,
			"byteLength":480,
			"byteOffset":13624,
			"target":34962
		}
	],
	"buffers":[
		{
			"byteLength":14104,
			"uri":"isometric.bin"
		}
	]
}
